<svg width="65" height="64" viewBox="0 0 65 64" fill="none" xmlns="http://www.w3.org/2000/svg">
<path d="M45.1908 36.4646L36.2468 34.807V31.5663C36.5523 31.3772 36.8527 31.1813 37.1385 30.9742C39.0989 29.5399 40.4804 27.4507 41.0329 25.0854L42.2669 24.6887C42.8369 24.5065 43.3341 24.1474 43.6862 23.6636C44.0384 23.1797 44.2272 22.5963 44.2254 21.9979V20.7919C44.224 20.3739 44.0906 19.9671 43.8443 19.6294C43.5979 19.2918 43.2512 19.0406 42.8536 18.9116V14.842C42.852 13.3167 42.2454 11.8544 41.1671 10.7757C40.0887 9.69702 38.6266 9.09006 37.1013 9.08796H34.7942L34.0364 8.64856C32.6327 7.84 31.0413 7.4143 29.4215 7.41406C27.4522 7.41639 25.5642 8.19972 24.1717 9.59222C22.7792 10.9847 21.9959 12.8727 21.9935 14.842V18.9116C21.5963 19.0409 21.25 19.2922 21.004 19.6299C20.758 19.9675 20.6248 20.3741 20.6235 20.7919V21.9979C20.6218 22.5963 20.8107 23.1797 21.1628 23.6635C21.5149 24.1473 22.012 24.5064 22.5819 24.6887L23.816 25.0854C24.3681 27.4501 25.7487 29.539 27.7078 30.9738C27.9932 31.1805 28.2937 31.3767 28.6008 31.5667V34.807L19.6584 36.4646C18.3369 36.7098 17.1429 37.4098 16.2834 38.4432C15.424 39.4766 14.9533 40.7782 14.9531 42.1223V55.8525C14.9531 56.0467 15.0303 56.233 15.1676 56.3703C15.305 56.5076 15.4912 56.5848 15.6855 56.5848C15.8797 56.5848 16.066 56.5076 16.2033 56.3703C16.3406 56.233 16.4178 56.0467 16.4178 55.8525V42.1223C16.418 41.1203 16.7688 40.15 17.4095 39.3796C18.0502 38.6092 18.9403 38.0874 19.9254 37.9045L25.4162 36.8868L27.8346 42.0554C27.8835 42.1601 27.9565 42.2518 28.0477 42.3229C28.1388 42.3941 28.2455 42.4426 28.3589 42.4646C28.4048 42.4731 28.4513 42.4775 28.4979 42.4776C28.6843 42.4781 28.8639 42.4075 29 42.2801L29.6541 41.6687L30.4429 42.8957L29.4533 55.7964C29.4459 55.8923 29.4575 55.9887 29.4874 56.0801C29.5173 56.1715 29.5649 56.2562 29.6275 56.3292C29.6901 56.4022 29.7664 56.4622 29.8522 56.5057C29.938 56.5492 30.0315 56.5754 30.1274 56.5827C30.1467 56.5827 30.1655 56.5827 30.1843 56.5827C30.3687 56.5825 30.5462 56.5128 30.6815 56.3874C30.8167 56.2621 30.8996 56.0903 30.9137 55.9065L31.8699 43.4359H32.9822L33.9385 55.9065C33.9526 56.0903 34.0355 56.2621 34.1707 56.3874C34.306 56.5128 34.4835 56.5825 34.6679 56.5827C34.6867 56.5827 34.7055 56.5827 34.7248 56.5827C34.8207 56.5754 34.9142 56.5492 35 56.5057C35.0857 56.4622 35.1621 56.4022 35.2247 56.3292C35.2873 56.2562 35.3349 56.1715 35.3648 56.0801C35.3947 55.9887 35.4063 55.8923 35.3989 55.7964L34.408 42.8957L35.1968 41.6687L35.8509 42.2801C35.987 42.4075 36.1666 42.4782 36.3531 42.4776C36.3997 42.4774 36.4462 42.4731 36.492 42.4646C36.6055 42.4426 36.7121 42.3941 36.8033 42.3229C36.8944 42.2518 36.9674 42.1601 37.0163 42.0554L39.4347 36.8868L44.9255 37.9045C45.9103 38.0878 46.7999 38.6099 47.4402 39.3802C48.0804 40.1506 48.431 41.1206 48.4311 42.1223V55.8525C48.4311 56.0467 48.5082 56.233 48.6456 56.3703C48.7829 56.5076 48.9692 56.5848 49.1634 56.5848C49.3576 56.5848 49.5439 56.5076 49.6812 56.3703C49.8186 56.233 49.8957 56.0467 49.8957 55.8525V42.1223C49.8954 40.7783 49.4248 39.4768 48.5655 38.4434C47.7061 37.41 46.5122 36.7099 45.1908 36.4646ZM32.4244 37.1082L30.0672 35.0798V32.3016C31.5893 32.8595 33.26 32.8595 34.7821 32.3016V35.0798L32.4244 37.1082ZM42.7607 21.9979C42.7622 22.2862 42.6716 22.5675 42.5022 22.8008C42.3328 23.0341 42.0934 23.2073 41.8187 23.2952L41.2823 23.468C41.3028 23.2006 41.317 22.9319 41.317 22.6616V20.2688H42.2376C42.3764 20.2688 42.5094 20.3239 42.6075 20.422C42.7056 20.5201 42.7607 20.6531 42.7607 20.7919V21.9979ZM29.4215 8.87872C30.7841 8.87933 32.1227 9.23793 33.3032 9.91863L34.231 10.4547C34.3424 10.5188 34.4686 10.5526 34.5971 10.5526H37.1005C38.2378 10.5536 39.3284 11.0058 40.1327 11.81C40.937 12.6142 41.3894 13.7046 41.3907 14.842V18.8041H40.3118C39.4534 18.8055 38.611 18.5716 37.8762 18.1277C37.1414 17.6839 36.5424 17.0471 36.1442 16.2866L35.2462 14.5783C35.1841 14.4601 35.0908 14.3611 34.9765 14.292C34.8622 14.223 34.7311 14.1865 34.5976 14.1865C34.464 14.1865 34.333 14.223 34.2186 14.292C34.1043 14.3611 34.0111 14.4601 33.9489 14.5783L33.0521 16.2866C32.6539 17.047 32.0549 17.6838 31.3201 18.1276C30.5853 18.5715 29.743 18.8054 28.8846 18.8041H23.4582V14.842C23.4601 13.261 24.089 11.7453 25.2069 10.6274C26.3248 9.50948 27.8405 8.88061 29.4215 8.87872ZM23.0305 23.2952C22.7559 23.2073 22.5164 23.0341 22.3469 22.8008C22.1774 22.5675 22.0868 22.2863 22.0881 21.9979V20.7919C22.0882 20.6532 22.1434 20.5202 22.2414 20.4221C22.3395 20.324 22.4725 20.2689 22.6112 20.2688H23.5318V22.6612C23.5318 22.9315 23.5461 23.1998 23.5666 23.4667L23.0305 23.2952ZM24.9973 22.662V20.2688H28.8854C30.0108 20.2705 31.1152 19.9637 32.0785 19.3819C33.0418 18.8 33.8272 17.9652 34.3494 16.9683L34.6005 16.4929L34.8516 16.9683C35.3372 17.8955 36.0513 18.6835 36.9263 19.2579C37.8014 19.8323 38.8084 20.174 39.8523 20.2508V22.6608C39.8603 24.0463 39.5408 25.4141 38.9198 26.6527C38.2988 27.8913 37.394 28.9657 36.279 29.7882C35.9135 30.0525 35.5348 30.2982 35.1445 30.5243C34.3174 31.0034 33.3786 31.2557 32.4227 31.2557C31.4669 31.2557 30.5281 31.0034 29.701 30.5243C29.3111 30.2978 28.9329 30.0519 28.5678 29.7874C27.4533 28.9648 26.5489 27.8906 25.9283 26.6522C25.3077 25.4138 24.9884 24.0463 24.9965 22.6612L24.9973 22.662ZM28.7347 40.5229L26.9039 36.611L29.1218 36.2001L31.328 38.0966L28.7347 40.5229ZM33.2614 41.9742H31.5917L30.7417 40.6518L32.4244 39.0767L34.1092 40.6518L33.2614 41.9742ZM36.117 40.5221L33.5225 38.0949L35.7274 36.1984L37.9454 36.6093L36.117 40.5221Z" fill="#424242"/>
<path d="M21.9589 45.9141C21.7647 45.9141 21.5784 45.9912 21.4411 46.1286C21.3037 46.2659 21.2266 46.4522 21.2266 46.6464V55.8528C21.2266 56.0471 21.3037 56.2333 21.4411 56.3707C21.5784 56.508 21.7647 56.5852 21.9589 56.5852C22.1531 56.5852 22.3394 56.508 22.4767 56.3707C22.6141 56.2333 22.6912 56.0471 22.6912 55.8528V46.6464C22.6912 46.4522 22.6141 46.2659 22.4767 46.1286C22.3394 45.9912 22.1531 45.9141 21.9589 45.9141Z" fill="#424242"/>
<path d="M42.8886 45.9141C42.7924 45.914 42.6971 45.9329 42.6083 45.9697C42.5194 46.0065 42.4386 46.0604 42.3706 46.1284C42.3026 46.1964 42.2487 46.2772 42.2119 46.3661C42.1751 46.455 42.1562 46.5502 42.1563 46.6464V55.8528C42.1563 56.0471 42.2334 56.2333 42.3707 56.3707C42.5081 56.508 42.6944 56.5852 42.8886 56.5852C43.0828 56.5852 43.2691 56.508 43.4064 56.3707C43.5438 56.2333 43.6209 56.0471 43.6209 55.8528V46.6464C43.621 46.5502 43.6021 46.455 43.5653 46.3661C43.5285 46.2772 43.4746 46.1964 43.4065 46.1284C43.3385 46.0604 43.2578 46.0065 43.1689 45.9697C43.08 45.9329 42.9848 45.914 42.8886 45.9141Z" fill="#424242"/>
<path d="M44.4385 19.3546C44.4385 26.2104 38.9938 31.7417 32.3095 31.7417C25.6252 31.7417 20.1804 26.2104 20.1804 19.3546C20.1804 12.4989 25.6252 6.96755 32.3095 6.96755C38.9938 6.96755 44.4385 12.4989 44.4385 19.3546Z" fill="white" stroke="#424242" stroke-width="1.54839"/>
<path d="M32.1253 10.3223C30.3251 10.3223 28.5653 10.8561 27.0686 11.8562C25.5718 12.8563 24.4052 14.2778 23.7163 15.941C23.0274 17.6041 22.8471 19.4342 23.1983 21.1998C23.5495 22.9653 24.4164 24.5871 25.6893 25.86C26.9622 27.1329 28.584 27.9998 30.3496 28.351C32.1152 28.7022 33.9452 28.522 35.6084 27.8331C37.2715 27.1442 38.693 25.9776 39.6931 24.4808C40.6933 22.984 41.2271 21.2242 41.2271 19.4241C41.2243 17.011 40.2645 14.6975 38.5582 12.9912C36.8518 11.2849 34.5384 10.325 32.1253 10.3223ZM32.1253 27.0612C30.6148 27.0612 29.1382 26.6133 27.8823 25.7741C26.6264 24.935 25.6475 23.7422 25.0694 22.3467C24.4914 20.9512 24.3402 19.4156 24.6348 17.9341C24.9295 16.4527 25.6569 15.0919 26.725 14.0238C27.793 12.9557 29.1539 12.2284 30.6353 11.9337C32.1168 11.639 33.6524 11.7902 35.0479 12.3683C36.4434 12.9463 37.6361 13.9252 38.4753 15.1811C39.3145 16.437 39.7624 17.9136 39.7624 19.4241C39.7603 21.4489 38.955 23.3902 37.5232 24.822C36.0914 26.2538 34.1501 27.0591 32.1253 27.0612Z" fill="#686868"/>
<path d="M32.123 14.4299C32.2191 14.43 32.3144 14.4111 32.4033 14.3743C32.4921 14.3375 32.5729 14.2835 32.6409 14.2155C32.7089 14.1475 32.7629 14.0668 32.7997 13.9779C32.8364 13.889 32.8553 13.7938 32.8553 13.6976V13.5507C32.8553 13.3565 32.7781 13.1702 32.6408 13.0329C32.5035 12.8955 32.3172 12.8184 32.123 12.8184C31.9287 12.8184 31.7425 12.8955 31.6051 13.0329C31.4678 13.1702 31.3906 13.3565 31.3906 13.5507V13.6972C31.3905 13.7934 31.4094 13.8887 31.4461 13.9776C31.4829 14.0665 31.5368 14.1473 31.6048 14.2154C31.6729 14.2834 31.7536 14.3374 31.8425 14.3742C31.9314 14.411 32.0267 14.43 32.123 14.4299Z" fill="#686868"/>
<path d="M32.123 24.418C32.0268 24.4179 31.9315 24.4368 31.8426 24.4736C31.7538 24.5104 31.673 24.5643 31.605 24.6323C31.537 24.7004 31.483 24.7811 31.4463 24.87C31.4095 24.9589 31.3906 25.0541 31.3906 25.1503V25.2972C31.3906 25.4914 31.4678 25.6777 31.6051 25.815C31.7425 25.9524 31.9287 26.0295 32.123 26.0295C32.3172 26.0295 32.5035 25.9524 32.6408 25.815C32.7781 25.6777 32.8553 25.4914 32.8553 25.2972V25.1503C32.8553 25.0541 32.8364 24.9589 32.7997 24.87C32.7629 24.7811 32.7089 24.7004 32.6409 24.6323C32.5729 24.5643 32.4921 24.5104 32.4033 24.4736C32.3144 24.4368 32.2191 24.4179 32.123 24.418Z" fill="#686868"/>
<path d="M38.0038 18.6914H37.8573C37.6631 18.6914 37.4768 18.7686 37.3395 18.9059C37.2022 19.0432 37.125 19.2295 37.125 19.4237C37.125 19.618 37.2022 19.8042 37.3395 19.9416C37.4768 20.0789 37.6631 20.1561 37.8573 20.1561H38.0038C38.198 20.1561 38.3843 20.0789 38.5216 19.9416C38.659 19.8042 38.7361 19.618 38.7361 19.4237C38.7361 19.2295 38.659 19.0432 38.5216 18.9059C38.3843 18.7686 38.198 18.6914 38.0038 18.6914Z" fill="#686868"/>
<path d="M26.3944 18.6924H26.248C26.0537 18.6924 25.8675 18.7695 25.7301 18.9069C25.5928 19.0442 25.5156 19.2305 25.5156 19.4247C25.5156 19.6189 25.5928 19.8052 25.7301 19.9425C25.8675 20.0799 26.0537 20.157 26.248 20.157H26.3944C26.5886 20.157 26.7749 20.0799 26.9123 19.9425C27.0496 19.8052 27.1268 19.6189 27.1268 19.4247C27.1268 19.2305 27.0496 19.0442 26.9123 18.9069C26.7749 18.7695 26.5886 18.6924 26.3944 18.6924Z" fill="#686868"/>
<path d="M35.7716 16.4731L32.1234 18.5793L29.3443 16.9748C29.1762 16.8792 28.9771 16.854 28.7905 16.9047C28.6038 16.9554 28.4448 17.0778 28.3481 17.2453C28.2514 17.4128 28.2249 17.6117 28.2743 17.7986C28.3238 17.9856 28.4451 18.1454 28.612 18.2432L31.7572 20.0586C31.8686 20.1227 31.9949 20.1565 32.1234 20.1565C32.2519 20.1565 32.3782 20.1227 32.4895 20.0586L36.504 17.7411C36.6708 17.6433 36.7922 17.4834 36.8416 17.2965C36.891 17.1095 36.8645 16.9106 36.7678 16.7431C36.6711 16.5756 36.5121 16.4532 36.3255 16.4025C36.1388 16.3519 35.9398 16.3775 35.7716 16.4731Z" fill="#686868"/>
</svg>
