<svg width="65" height="64" viewBox="0 0 65 64" fill="none" xmlns="http://www.w3.org/2000/svg">
<path d="M35.9422 48.473C36.9534 48.473 37.9646 48.473 38.9694 48.473C39.6286 48.473 40.2814 48.473 40.9406 48.473C41.5038 48.473 41.9198 48.8634 41.9262 49.3818C41.9262 49.881 41.5294 50.297 40.979 50.3098C39.7694 50.3226 38.5662 50.3162 37.3566 50.3162C34.3742 50.3162 31.3918 50.3162 28.4158 50.3162H14.9758C12.8894 50.3162 10.8094 50.3162 8.7294 50.3162C8.3262 50.3162 7.9934 50.1882 7.795 49.8106C7.4878 49.2218 7.8718 48.5306 8.531 48.473C8.6782 48.4602 8.8254 48.473 8.9662 48.473C14.867 48.473 20.7614 48.4666 26.6622 48.473C28.5438 48.473 30.3998 48.313 32.2174 47.8138C33.939 47.3402 35.571 46.6426 37.0942 45.7082C39.2702 44.3706 41.1006 42.6682 42.5854 40.5946C43.763 38.9498 44.6526 37.1642 45.2542 35.2314C45.8878 33.1962 46.1758 31.1162 46.099 28.985C46.0094 26.649 45.5294 24.3962 44.6078 22.2394C43.4558 19.5514 41.7662 17.2666 39.5582 15.3594C37.7022 13.7594 35.6158 12.569 33.2926 11.7818C31.0078 11.0138 28.659 10.7194 26.259 10.8154C25.9582 10.8282 25.6574 10.8666 25.3566 10.905C24.8446 10.969 24.3582 10.6362 24.2878 10.169C24.2046 9.6122 24.5054 9.1322 25.075 9.1002C26.2974 9.0298 27.5326 8.9402 28.755 9.0298C29.9838 9.1194 31.2062 9.3498 32.4094 9.625C34.2846 10.0538 36.0318 10.8154 37.6958 11.7818C39.507 12.8378 41.1198 14.1434 42.5342 15.6922C44.0446 17.3434 45.267 19.193 46.1694 21.2474C46.8478 22.7834 47.347 24.377 47.635 26.0282C47.987 28.0634 48.0446 30.105 47.795 32.1594C47.5262 34.361 46.9182 36.4666 45.9646 38.4762C44.8062 40.921 43.2254 43.0522 41.2286 44.8826C39.6798 46.3034 37.9518 47.4682 36.0382 48.3578L35.9358 48.4218V48.4794L35.9422 48.473Z" fill="#424242"/>
<path d="M39.7098 29.6446C39.729 36.4222 34.1866 41.9774 27.4218 42.0414C20.5226 42.1054 14.9034 36.499 14.8906 29.6702C14.8778 22.803 20.433 17.3118 27.1274 17.2286C34.065 17.139 39.7098 22.7326 39.7098 29.6446ZM37.8666 29.6574C37.873 23.8526 33.1626 19.1038 27.4346 19.059C21.4634 19.0142 16.817 23.7886 16.7146 29.4334C16.6122 35.3982 21.4442 40.147 27.1658 40.2046C33.0538 40.2686 37.873 35.4942 37.8666 29.6574Z" fill="#686868"/>
<path d="M8.8545 20.1285C9.4369 19.2261 9.9937 18.3301 10.5825 17.4533C10.8385 17.0693 11.1457 16.7045 11.4529 16.3525C11.8241 15.9237 12.3489 15.8917 12.7457 16.2373C13.1425 16.5829 13.1681 17.1461 12.8033 17.5749C11.9585 18.5797 11.2417 19.6741 10.6209 20.8325C10.5889 20.8965 10.5633 20.9605 10.5185 21.0693C11.2289 20.9541 11.9009 20.8389 12.5729 20.7237C13.0849 20.6341 13.5969 20.5445 14.1089 20.4549C14.7105 20.3525 15.1777 20.6789 15.2673 21.2613C15.3441 21.7349 14.9729 22.1701 14.4097 22.2661C12.4321 22.6053 10.4609 22.9445 8.4833 23.2773C7.9073 23.3733 7.4977 23.0469 7.3953 22.4773C7.1201 20.8709 6.8385 19.2645 6.5569 17.6581C6.5057 17.3701 6.4673 17.0821 6.4225 16.7941C6.3329 16.2629 6.6209 15.8149 7.1137 15.7061C7.6193 15.5909 8.1057 15.8917 8.2145 16.4293C8.3617 17.1525 8.4705 17.8821 8.5921 18.6117C8.6817 19.1237 8.7649 19.6357 8.8545 20.1413" fill="#424242"/>
<path d="M55.9373 50.3166C55.4701 50.3166 55.0029 50.3294 54.5357 50.3166C53.8701 50.291 53.4797 49.7982 53.6077 49.1646C53.6781 48.8382 53.9405 48.5566 54.2797 48.5182C54.6317 48.4798 54.9837 48.4862 55.3357 48.4734C55.5405 48.4734 55.7453 48.4734 56.0397 48.4734C55.7837 48.2174 55.5853 48.0126 55.3869 47.8078C54.6189 47.0398 53.8573 46.2782 53.0829 45.5166C52.6605 45.1006 52.6285 44.5438 53.0061 44.1534C53.3709 43.7822 53.9469 43.7758 54.3437 44.1726C55.5533 45.363 56.7437 46.5662 57.9469 47.763C58.2541 48.0702 58.5613 48.3838 58.8749 48.691C59.2781 49.0942 59.2973 49.651 58.9005 50.0542C57.3197 51.6414 55.7389 53.2222 54.1517 54.803C53.7997 55.155 53.2621 55.1614 52.9101 54.835C52.5325 54.483 52.4877 53.9006 52.8525 53.523C53.4413 52.9086 54.0493 52.3134 54.6573 51.7118C55.0989 51.2766 55.5469 50.8478 55.9885 50.4126L55.9373 50.323V50.3166Z" fill="#424242"/>
<path d="M22.4141 9.55566C22.9581 9.55566 23.3485 9.88206 23.4061 10.3237C23.4701 10.7909 23.1565 11.2197 22.7021 11.3669C21.6525 11.7125 20.6029 12.0709 19.5597 12.4549C19.0029 12.6597 18.5037 12.5253 18.2797 12.0517C18.0557 11.5589 18.2477 10.9765 18.7725 10.7845C19.8989 10.3685 21.0381 9.99086 22.1773 9.60046C22.2733 9.56846 22.3821 9.56206 22.4077 9.56206" fill="#424242"/>
<path d="M13.9025 16.0001C13.4801 15.9937 13.1857 15.7953 13.0513 15.4433C12.8977 15.0593 12.9809 14.6817 13.3009 14.4001C13.7617 13.9969 14.2289 13.6001 14.7089 13.2161C15.0737 12.9281 15.4641 12.6657 15.8481 12.3969C16.3281 12.0641 16.9105 12.1537 17.1985 12.5889C17.5057 13.0625 17.3521 13.5745 16.8593 13.9329C16.1169 14.4833 15.4001 15.0593 14.6769 15.6353C14.4401 15.8209 14.2161 16.0321 13.9089 15.9937" fill="#424242"/>
<path d="M50.3031 48.4746C50.7383 48.4746 51.1799 48.4746 51.6151 48.4746C52.1975 48.481 52.6199 48.8714 52.6199 49.4026C52.6199 49.9146 52.2103 50.3114 51.6407 50.3242C50.7447 50.337 49.8551 50.337 48.9591 50.3242C48.4535 50.3178 48.1143 50.0362 48.0055 49.5818C47.9223 49.249 48.0887 48.8138 48.4343 48.6218C48.5943 48.5322 48.8055 48.4938 48.9975 48.4874C49.4327 48.4682 49.8743 48.4874 50.3095 48.4874L50.3031 48.4746Z" fill="#424242"/>
<path d="M45.0196 48.4668C45.3652 48.4668 45.7044 48.4668 46.05 48.4668C46.626 48.4796 47.0356 48.8572 47.0356 49.3756C47.0356 49.9132 46.626 50.31 46.0436 50.3164C45.3396 50.3228 44.6292 50.3292 43.9188 50.3164C43.4196 50.3036 43.1124 50.0348 42.9972 49.5804C42.914 49.2476 43.0868 48.7996 43.426 48.6204C43.5924 48.5308 43.7972 48.4988 43.9892 48.486C44.3284 48.4668 44.674 48.486 45.0196 48.486V48.4668Z" fill="#424242"/>
<path d="M28.2089 25.005C28.2089 26.029 28.2089 27.0466 28.2089 28.0642C28.2089 28.397 28.5161 28.7106 28.8425 28.7106C29.9753 28.7106 31.1081 28.7106 32.2473 28.7106C32.6313 28.7106 32.9641 28.7938 33.1817 29.1522C33.5337 29.7218 33.2201 30.4514 32.5609 30.5282C32.0873 30.5794 31.6073 30.5538 31.1273 30.5602C30.3785 30.5602 29.6233 30.5538 28.8745 30.5666C28.7337 30.5666 28.5609 30.6498 28.4585 30.7458C27.8313 31.373 26.7881 31.4114 26.1801 30.8034C25.5209 30.1506 25.4953 29.1586 26.1481 28.5186C26.3145 28.3586 26.3529 28.2114 26.3529 28.0066C26.3529 26.0098 26.3529 24.0066 26.3529 22.0098C26.3529 21.4594 26.6153 21.0818 27.0697 20.973C27.5753 20.845 28.0873 21.1586 28.1641 21.6706C28.2153 22.0098 28.2025 22.3554 28.2025 22.701C28.2025 23.469 28.2025 24.2434 28.2025 25.0114L28.2089 25.005Z" fill="#686868"/>
</svg>
