<svg width="65" height="64" viewBox="0 0 65 64" fill="none" xmlns="http://www.w3.org/2000/svg">
<path d="M22.325 46.6493C22.4338 46.6493 22.517 46.6493 22.6002 46.6493C23.6434 46.6493 24.6866 46.6365 25.7298 46.6493C27.4322 46.6685 28.6866 47.9165 28.6994 49.6125C28.7122 52.3581 28.7058 55.0973 28.6994 57.8429C28.6994 58.7709 28.0658 59.3853 27.1314 59.3789C26.901 59.3789 26.6642 59.3789 26.4402 59.3405C25.7554 59.2125 25.269 58.6237 25.269 57.9261C25.269 55.6797 25.269 53.4333 25.269 51.1869C25.269 50.4637 24.8786 50.0669 24.1554 50.0669C22.741 50.0669 21.3266 50.0669 19.9122 50.0669C18.4914 50.0605 17.3458 49.1709 17.0194 47.8205C16.9618 47.5773 16.9426 47.3213 16.9426 47.0717C16.9426 44.2429 16.9554 41.4205 16.9298 38.5917C16.917 37.1261 18.0946 35.8589 19.6242 35.8653C21.1218 35.8653 22.3186 37.0493 22.3186 38.5533C22.3186 41.1581 22.3186 43.7565 22.3186 46.3613V46.6493H22.325Z" stroke="#424242" stroke-width="1.92" stroke-miterlimit="10"/>
<path d="M42.4 46.6491C42.4 45.7659 42.4 44.9211 42.4 44.0763C42.4 42.2459 42.4 40.4091 42.4 38.5787C42.4 37.2795 43.2511 36.2235 44.5119 35.9355C46.1567 35.5579 47.7632 36.7931 47.7696 38.4827C47.7888 41.3947 47.7824 44.3067 47.7696 47.2123C47.7632 48.7739 46.5088 50.0411 44.9408 50.0667C43.4688 50.0923 42.0032 50.0731 40.5312 50.0795C39.9616 50.0795 39.5776 50.3675 39.4688 50.8731C39.4496 50.9755 39.4496 51.0843 39.4496 51.1867C39.4496 53.3435 39.4496 55.5003 39.4496 57.6507C39.4496 58.6875 38.656 59.4299 37.6256 59.3851C36.704 59.3467 36.0192 58.5851 36.0192 57.5803C36.0192 55.6539 36.0192 53.7339 36.0192 51.8075C36.0192 50.9627 36 50.1115 36.0512 49.2667C36.128 47.9035 37.3952 46.6939 38.7584 46.6683C39.8784 46.6427 42.2208 46.6619 43.3408 46.6555C43.424 46.6555 42.2848 46.6555 42.3936 46.6555" stroke="#424242" stroke-width="1.92" stroke-miterlimit="10"/>
<path d="M32.3452 43.7183C29.8748 43.7183 27.4044 43.7183 24.934 43.7183C24.454 43.7183 24.2877 43.5519 24.2812 43.0783C24.2812 42.6943 24.2812 42.3103 24.2812 41.9263C24.2812 41.4207 24.4412 41.2607 24.9468 41.2607C27.3596 41.2607 29.7724 41.2607 32.1916 41.2607C34.7132 41.2607 37.2284 41.2607 39.75 41.2607C39.8397 41.2607 39.9293 41.2607 40.0189 41.2735C40.2685 41.3119 40.4349 41.4655 40.4413 41.7215C40.4541 42.2335 40.4541 42.7455 40.4413 43.2511C40.4349 43.5519 40.2172 43.7183 39.8844 43.7183C39.334 43.7183 38.7772 43.7183 38.2268 43.7183H32.3516H32.3452Z" fill="#424242"/>
<path d="M47.767 52.2249C45.6615 52.2249 43.5623 52.2249 41.4567 52.2249C41.0471 52.2249 40.9062 52.1417 40.9062 51.9049C40.9062 51.7129 40.9062 51.5209 40.9062 51.3289C40.9062 51.0729 41.0406 50.9961 41.4694 50.9961C43.5238 50.9961 45.5783 50.9961 47.6327 50.9961C49.7767 50.9961 51.9206 50.9961 54.0646 50.9961C54.1414 50.9961 54.2182 50.9961 54.295 51.0025C54.5062 51.0217 54.6471 51.0985 54.6535 51.2265C54.6663 51.4825 54.6663 51.7385 54.6535 51.9945C54.6471 52.1417 54.4614 52.2313 54.1798 52.2313C53.7062 52.2313 53.239 52.2313 52.7654 52.2313H47.7606L47.767 52.2249Z" fill="#424242"/>
<path d="M17.1889 52.2239C15.0833 52.2239 12.9841 52.2239 10.8785 52.2239C10.4689 52.2239 10.3281 52.1407 10.3281 51.9039C10.3281 51.7119 10.3281 51.5199 10.3281 51.3279C10.3281 51.0719 10.4625 50.9951 10.8913 50.9951C12.9457 50.9951 15.0001 50.9951 17.0545 50.9951C19.1985 50.9951 21.3425 50.9951 23.4865 50.9951C23.5633 50.9951 23.6401 50.9951 23.7169 51.0015C23.9281 51.0207 24.0689 51.0975 24.0753 51.2255C24.0881 51.4815 24.0881 51.7375 24.0753 51.9935C24.0689 52.1407 23.8833 52.2303 23.6017 52.2303C23.1281 52.2303 22.6609 52.2303 22.1873 52.2303H17.1825L17.1889 52.2239Z" fill="#424242"/>
<path d="M48.2855 30.9699C48.2855 32.8707 46.7687 34.4003 44.8743 34.4003C42.9671 34.4003 41.4375 32.8771 41.4375 30.9699C41.4375 29.0691 42.9607 27.5459 44.8615 27.5459C46.7623 27.5459 48.2855 29.0691 48.2855 30.9635" stroke="#424242" stroke-width="1.92" stroke-miterlimit="10"/>
<path d="M19.8501 34.4008C17.9301 34.3944 16.4389 32.852 16.4453 30.8936C16.4517 29.0568 18.0133 27.54 19.8885 27.5528C21.7829 27.5592 23.2997 29.0888 23.2933 30.996C23.2933 32.8904 21.7509 34.4136 19.8501 34.4008Z" stroke="#424242" stroke-width="1.92" stroke-miterlimit="10"/>
<path d="M45.8941 19.8525C45.7405 19.9997 45.5997 20.1661 45.3501 20.1085C45.0557 20.0381 44.9725 19.8397 44.9725 19.5645C44.9725 18.0157 44.9725 14.0884 44.9725 12.5396C44.9725 11.5156 44.4541 10.9908 43.4365 10.9908C40.6141 10.9908 37.7853 10.9908 34.9565 10.9908H34.6173V11.3428C34.6173 12.8724 34.5917 14.402 34.6237 15.9316C34.6493 17.2628 33.6573 18.3828 32.2109 18.3508C30.5277 18.3188 28.8445 18.3444 27.1613 18.3444H26.7645C26.7581 18.4596 26.7453 18.562 26.7453 18.658C26.7453 19.586 26.7453 20.514 26.7453 21.442C26.7453 22.4084 27.2701 22.9268 28.2493 22.9268C28.8381 22.9268 32.5373 22.9747 33.1261 22.9747C33.4845 22.9747 33.6829 23.1411 33.6893 23.4355C33.6893 23.7299 33.5037 23.8963 33.1325 23.8963C32.4605 23.8963 28.6845 23.8612 28.0061 23.8484C26.7837 23.8228 25.8301 22.8564 25.8173 21.6276C25.8045 20.6612 25.8173 19.6884 25.8173 18.722V18.3508C25.2861 18.3508 24.7741 18.3892 24.2749 18.3444C23.5645 18.274 23.0269 18.4916 22.5085 18.9844C21.6125 19.842 20.6333 20.6228 19.6989 21.442C19.4173 21.6852 19.1229 21.794 18.7773 21.6276C18.4445 21.4676 18.3357 21.186 18.3421 20.8212C18.3549 20.0148 18.3421 19.2084 18.3421 18.3508C18.0797 18.3508 17.8301 18.3572 17.5741 18.3508C17.1389 18.338 16.6909 18.37 16.2685 18.2804C15.2317 18.0564 14.5469 17.1668 14.5469 16.1172C14.5469 13.0132 14.5469 9.91557 14.5469 6.81157C14.5469 5.57637 15.5197 4.59077 16.7485 4.57157C17.4717 4.56517 18.1949 4.57157 18.9245 4.57157C19.2701 4.57157 19.4877 4.76357 19.4813 5.04517C19.4749 5.32037 19.2701 5.48677 18.9373 5.49317C18.2653 5.49317 17.5933 5.49317 16.9149 5.49317C16.0125 5.49317 15.4685 6.04357 15.4621 6.94597C15.4621 9.95397 15.4621 12.9684 15.4621 15.9764C15.4621 16.8852 15.9997 17.4292 16.9021 17.4292C17.4013 17.4292 17.9005 17.4292 18.3997 17.4292C18.9501 17.4292 19.2509 17.73 19.2573 18.274C19.2573 19.0164 19.2573 19.7588 19.2573 20.5716C19.3789 20.4756 19.4621 20.4116 19.5389 20.3412C20.5245 19.4836 21.5165 18.6324 22.4957 17.7684C22.7709 17.5252 23.0589 17.41 23.4365 17.41C26.3549 17.4228 29.2733 17.4164 32.1917 17.41C33.1645 17.41 33.6893 16.898 33.6893 15.9252C33.6893 12.9492 33.6893 9.96677 33.6893 6.99077C33.6893 6.00517 33.1645 5.48037 32.1789 5.48037C28.5373 5.48037 24.8957 5.48037 21.2541 5.48037C20.7805 5.48037 17.0146 5.69658 17.0146 5.11289C17.0146 4.4061 20.7805 4.55877 21.2605 4.55877C24.9021 4.55877 28.5437 4.55877 32.1853 4.55877C33.6893 4.55877 34.6173 5.49317 34.6173 7.00997C34.6173 8.01477 34.6173 9.02597 34.6173 10.0692H35.0013C37.8045 10.0692 40.6141 10.0692 43.4173 10.0692C44.7293 10.0692 45.4461 10.6004 45.8493 11.8612L45.8877 11.906V19.8461L45.8941 19.8525Z" fill="#686868"/>
<path d="M45.8941 22.0612C45.8557 22.1764 45.8109 22.2852 45.7725 22.4004C45.4653 23.2836 44.6717 23.8724 43.7373 23.898C43.2061 23.9108 42.6749 23.898 42.0989 23.898V24.2372C42.0989 24.954 42.0861 25.6644 42.0989 26.3812C42.1053 26.746 41.9901 27.0212 41.6573 27.1812C41.3053 27.3476 41.0173 27.2324 40.7357 26.9892C39.6221 26.0164 38.5085 25.0436 37.3821 24.09C37.2605 23.9812 37.0621 23.9108 36.8957 23.9108C35.3981 23.898 33.8941 23.9044 32.3965 23.9044C32.3069 23.9044 32.2109 23.9044 32.1213 23.9044C31.8525 23.8852 31.6797 23.7124 31.6797 23.4564C31.6797 23.194 31.8589 22.9892 32.1405 22.9892C33.8557 22.9892 35.5645 22.9764 37.2797 23.002C37.4845 23.002 37.7149 23.162 37.8877 23.3028C38.8733 24.1412 39.8461 24.9924 40.8253 25.8436C40.9213 25.9268 41.0237 26.01 41.1773 26.1316C41.1773 25.4468 41.2029 24.8196 41.1773 24.1988C41.1261 23.2132 41.4461 22.9252 42.4061 22.9828C42.8029 23.0084 43.1997 22.9828 43.5965 22.9828C44.3965 22.9828 44.9597 22.426 44.9725 21.6196C44.9789 20.9156 44.9789 20.2116 44.9725 19.5076C44.9725 19.2452 45.0045 19.0084 45.2797 18.906C45.5613 18.8036 45.7405 18.97 45.8877 19.1812V22.0612H45.8941Z" fill="#686868"/>
<path d="M35.8219 19.7434C37.9403 19.7434 40.0651 19.7434 42.1835 19.7434C42.2859 19.7434 42.3883 19.737 42.4907 19.7562C42.7275 19.8138 42.8747 19.9674 42.8683 20.2106C42.8683 20.4602 42.7275 20.633 42.4587 20.665C42.3499 20.6778 42.2347 20.6778 42.1259 20.6778C37.9339 20.6778 33.7483 20.6778 29.5563 20.6778C29.4411 20.6778 29.3323 20.6778 29.2235 20.665C28.9675 20.6266 28.8203 20.4794 28.8203 20.2106C28.8203 19.9418 28.9803 19.801 29.2235 19.7498C29.3195 19.7306 29.4283 19.7434 29.5307 19.7434C31.6299 19.7434 33.7291 19.7434 35.8283 19.7434" fill="#686868"/>
<path d="M24.1129 12.0509C24.1129 11.7885 24.1129 11.5197 24.1129 11.2573C24.1193 10.8861 24.2793 10.7261 24.6505 10.6877C25.3289 10.6237 25.8025 10.1565 25.8345 9.51648C25.8665 8.84448 25.4505 8.31968 24.7785 8.18528C24.1705 8.06368 23.5049 8.49888 23.3641 9.11968C23.3385 9.22848 23.3257 9.34368 23.3129 9.45248C23.2681 9.74688 23.0953 9.90048 22.8265 9.88768C22.5705 9.87488 22.4041 9.68288 22.3913 9.39488C22.3657 8.48608 23.0761 7.57088 23.9977 7.32128C25.1241 7.02048 26.3017 7.64768 26.6601 8.74848C27.0313 9.86848 26.4553 11.0781 25.3417 11.4813C25.1113 11.5645 25.0281 11.6733 25.0409 11.9165C25.0601 12.2493 25.0537 12.5885 25.0409 12.9277C25.0281 13.2477 24.8553 13.4333 24.5865 13.4397C24.3049 13.4397 24.1257 13.2477 24.1065 12.9213V12.8893C24.1065 12.6141 24.1065 12.3389 24.1065 12.0637" fill="#686868"/>
<path d="M39.584 12.9093C40.4608 12.9093 41.3376 12.9093 42.2144 12.9093C42.3232 12.9093 42.464 12.8901 42.5408 12.9477C42.6752 13.0501 42.8416 13.1973 42.8544 13.3445C42.8672 13.4853 42.72 13.6645 42.6048 13.7861C42.5408 13.8501 42.3936 13.8501 42.2848 13.8501C40.48 13.8501 38.6816 13.8501 36.8768 13.8501C36.7744 13.8501 36.672 13.8373 36.576 13.8053C36.3648 13.7349 36.2752 13.5749 36.2816 13.3573C36.2944 13.1397 36.4032 12.9925 36.6208 12.9413C36.7296 12.9157 36.8448 12.9157 36.9536 12.9157C37.8304 12.9157 38.7072 12.9157 39.584 12.9157" fill="#686868"/>
<path d="M39.5708 17.2674C38.7068 17.2674 37.8365 17.2674 36.9725 17.2674C36.8509 17.2674 36.7292 17.261 36.6076 17.229C36.3964 17.1778 36.2877 17.0306 36.2812 16.8066C36.2812 16.5698 36.3901 16.4162 36.6141 16.3522C36.7229 16.3266 36.8317 16.3202 36.9469 16.3202C38.7005 16.3202 40.4541 16.3202 42.2013 16.3202C42.3293 16.3202 42.4957 16.3074 42.5853 16.3778C42.7133 16.4866 42.8605 16.6594 42.8541 16.8066C42.8541 16.9474 42.6877 17.1138 42.5597 17.2098C42.4701 17.2802 42.3037 17.261 42.1757 17.261C41.3117 17.261 40.4413 17.261 39.5773 17.261" fill="#686868"/>
<path d="M24.5959 15.2772C24.3399 15.2772 24.1223 15.0852 24.1095 14.8292C24.1031 14.5796 24.3143 14.362 24.5639 14.3556C24.8199 14.3492 25.0375 14.554 25.0439 14.8036C25.0503 15.0596 24.8519 15.2708 24.5895 15.2772" fill="#686868"/>
</svg>
