<svg width="65" height="64" viewBox="0 0 65 64" fill="none" xmlns="http://www.w3.org/2000/svg">
<rect width="64" height="64" transform="translate(0.5)" fill="white"/>
<path d="M49.7717 43.0528C49.7717 43.0515 49.7721 43.0504 49.7717 43.0491C49.2325 39.3826 46.611 36.413 43.2063 35.244C45.2253 34.1286 46.5948 31.9988 46.5948 29.5566C46.5948 25.9636 43.6349 23.04 39.9968 23.04C37.1386 23.04 34.6688 24.8151 33.7635 27.431C33.3532 27.3521 32.9312 27.3077 32.4981 27.3077C32.0653 27.3077 31.6433 27.3518 31.2337 27.4307C30.328 24.8147 27.8579 23.04 24.9987 23.04C21.3616 23.04 18.4024 25.9636 18.4024 29.5566C18.4024 31.9988 19.7716 34.1286 21.7895 35.244C18.3841 36.413 15.763 39.3829 15.2248 43.0501C15.2244 43.0542 15.2248 43.0576 15.2244 43.0614C15.2193 43.0996 15.2179 43.1382 15.2193 43.1764C15.2196 43.1826 15.2193 43.1884 15.2196 43.1945C15.2224 43.2358 15.2289 43.2765 15.2393 43.3167C15.2396 43.3188 15.24 43.3208 15.2407 43.3229C15.2773 43.4622 15.3565 43.5919 15.4802 43.6879C17.6174 45.3448 20.1459 46.3987 22.822 46.7729C22.785 46.9528 22.7508 47.1341 22.7239 47.3178C22.7235 47.3216 22.7239 47.325 22.7235 47.3287C22.7183 47.367 22.717 47.4055 22.7183 47.4441C22.7187 47.4503 22.7183 47.4561 22.7187 47.4622C22.7214 47.5032 22.728 47.5435 22.738 47.5831C22.7387 47.5858 22.7391 47.5882 22.7398 47.5902C22.7723 47.7132 22.8397 47.8265 22.9399 47.9177C22.9416 47.9194 22.9434 47.9211 22.9454 47.9228C22.9572 47.9334 22.9669 47.9453 22.9793 47.9552C25.7183 50.0781 29.01 51.2 32.4981 51.2C35.9875 51.2 39.2799 50.0778 42.0182 47.9542C42.2204 47.7971 42.3069 47.5517 42.2719 47.3175C42.2719 47.3171 42.2719 47.3171 42.2719 47.3168C42.2453 47.1355 42.2118 46.9566 42.1755 46.779C44.853 46.4052 47.3773 45.3461 49.517 43.6868C49.7185 43.5305 49.8053 43.2867 49.7717 43.0528ZM39.9965 24.4057C42.872 24.4057 45.2118 26.7164 45.2118 29.5566C45.2118 32.3962 42.872 34.7062 39.9965 34.7062C39.674 34.7062 39.3553 34.6738 39.0411 34.6164C39.0736 34.3563 39.095 34.0927 39.095 33.824C39.095 31.1381 37.4407 28.8274 35.0857 27.8315C35.8143 25.7888 37.7535 24.4057 39.9965 24.4057ZM37.7127 33.824C37.7127 36.6636 35.3733 38.9736 32.4977 38.9736C29.6232 38.9736 27.2842 36.6636 27.2842 33.824C27.2842 30.9841 29.6229 28.6734 32.4977 28.6734C35.3733 28.6734 37.7127 30.9838 37.7127 33.824ZM19.7847 29.5566C19.7847 26.7164 22.1235 24.4057 24.9983 24.4057C27.2423 24.4057 29.1822 25.7888 29.9101 27.8315C27.5558 28.8274 25.9015 31.1381 25.9015 33.824C25.9015 34.0927 25.9233 34.3559 25.9554 34.6161C25.6409 34.6735 25.3215 34.7062 24.998 34.7062C22.1235 34.7062 19.7847 32.3962 19.7847 29.5566ZM16.6696 42.8555C17.4363 38.9627 20.9423 36.0719 24.9983 36.0719C25.4539 36.0719 25.9084 36.1088 26.355 36.1798C26.9143 37.597 27.9582 38.7756 29.289 39.5113C26.4853 40.4738 24.215 42.6578 23.1991 45.4465C20.8328 45.1471 18.5922 44.2573 16.6696 42.8555ZM24.1673 47.1293C24.9319 43.2334 28.4397 40.3389 32.4977 40.3389C36.5561 40.3389 40.0646 43.2334 40.8292 47.1293C38.4051 48.8992 35.5347 49.8344 32.4984 49.8344C29.4628 49.8344 26.5925 48.8992 24.1673 47.1293ZM35.7068 39.5113C37.0387 38.7759 38.0826 37.5973 38.6422 36.1794C39.0884 36.1088 39.5423 36.0719 39.9965 36.0719C44.0521 36.0719 47.5588 38.963 48.3269 42.8548C46.4029 44.2587 44.1644 45.146 41.7963 45.4448C40.7804 42.6571 38.5105 40.4738 35.7068 39.5113Z" fill="#424242"/>
<path d="M31.5719 14.5744V17.6575C31.5766 17.8985 31.6761 18.128 31.8489 18.2968C32.0218 18.4655 32.2542 18.56 32.4963 18.56C32.7383 18.56 32.9708 18.4655 33.1436 18.2967C33.3164 18.128 33.4159 17.8984 33.4206 17.6575V14.5744C34.3308 14.3496 35.127 13.801 35.6588 13.0319C36.1907 12.2629 36.4216 11.3267 36.3079 10.3998C36.1942 9.47298 35.7438 8.6196 35.0416 8.00067C34.3394 7.38173 33.434 7.04004 32.4963 7.04004C31.5585 7.04004 30.6531 7.38173 29.9509 8.00067C29.2487 8.6196 28.7983 9.47298 28.6846 10.3998C28.5709 11.3267 28.8018 12.2629 29.3337 13.0319C29.8655 13.801 30.6617 14.3497 31.5719 14.5744ZM32.4963 8.88075C33.0225 8.88605 33.5254 9.09791 33.8956 9.4703C34.2659 9.84268 34.4735 10.3455 34.4735 10.8695C34.4735 11.3935 34.2658 11.8963 33.8956 12.2687C33.5253 12.6411 33.0224 12.8529 32.4962 12.8582C31.97 12.8529 31.4671 12.641 31.0968 12.2687C30.7266 11.8963 30.5189 11.3934 30.5189 10.8694C30.5189 10.3455 30.7266 9.84264 31.0969 9.47026C31.4671 9.09788 31.97 8.88603 32.4963 8.88075Z" fill="#686868"/>
<path d="M13.9512 21.2556C14.6504 21.2525 15.3354 21.0711 15.9323 20.7309L18.1213 22.7842C18.2069 22.8649 18.3086 22.9291 18.4207 22.973C18.5328 23.0169 18.653 23.0397 18.7746 23.0401C18.8961 23.0405 19.0165 23.0185 19.1289 22.9753C19.2413 22.9321 19.3435 22.8686 19.4297 22.7885C19.5158 22.7083 19.5841 22.6131 19.6308 22.5082C19.6774 22.4034 19.7015 22.2909 19.7016 22.1773C19.7016 22.0638 19.6777 21.9513 19.6312 21.8464C19.5847 21.7414 19.5165 21.6461 19.4304 21.5659L17.2366 19.508C17.6716 18.8277 17.8533 18.032 17.7534 17.245C17.6534 16.458 17.2774 15.7241 16.6841 15.1578C16.0908 14.5916 15.3136 14.2248 14.4737 14.1148C13.6339 14.0048 12.7787 14.1578 12.0416 14.5498C11.3046 14.9418 10.7272 15.5509 10.3996 16.2819C10.072 17.0128 10.0126 17.8246 10.2307 18.5905C10.4488 19.3563 10.9321 20.0331 11.6051 20.5153C12.2782 20.9974 13.1031 21.2577 13.9512 21.2556ZM12.5396 16.3452C12.916 16.0037 13.421 15.8143 13.9455 15.818C14.47 15.8216 14.972 16.018 15.3429 16.3646C15.7137 16.7113 15.9238 17.1804 15.9275 17.6706C15.9313 18.1607 15.7286 18.6326 15.3631 18.9842C14.9868 19.3258 14.4818 19.5152 13.9572 19.5116C13.4326 19.508 12.9306 19.3116 12.5597 18.9649C12.1888 18.6182 11.9788 18.1491 11.975 17.6589C11.9713 17.1687 12.1741 16.6968 12.5396 16.3452Z" fill="#686868"/>
<path d="M14.3214 32.3585H11.2435C11.0193 31.4479 10.4709 30.6512 9.70168 30.1186C8.93244 29.586 7.99559 29.3544 7.06789 29.4675C6.14019 29.5805 5.2858 30.0305 4.66594 30.7324C4.04607 31.4343 3.70359 32.3396 3.70313 33.2775C3.70266 34.2155 4.04423 35.1211 4.6634 35.8237C5.28257 36.5262 6.13651 36.977 7.06409 37.091C7.99168 37.205 8.92876 36.9743 9.69853 36.4425C10.4683 35.9107 11.0175 35.1145 11.2425 34.2041H14.3214C14.5622 34.1994 14.7915 34.1001 14.9601 33.9276C15.1287 33.755 15.2231 33.523 15.2231 33.2813C15.2231 33.0396 15.1287 32.8076 14.9601 32.635C14.7915 32.4625 14.5622 32.3632 14.3214 32.3585ZM7.54138 35.2738C7.01791 35.2685 6.51768 35.0561 6.14939 34.6827C5.7811 34.3093 5.57451 33.8051 5.57452 33.2797C5.57453 32.7543 5.78113 32.2501 6.14943 31.8767C6.51773 31.5034 7.01796 31.2909 7.54143 31.2856C8.0649 31.2909 8.56513 31.5034 8.93342 31.8768C9.30172 32.2502 9.50831 32.7543 9.50831 33.2797C9.5083 33.8052 9.30171 34.3093 8.93341 34.6827C8.56511 35.0561 8.06484 35.2685 7.54138 35.2738Z" fill="#686868"/>
<path d="M57.4692 29.4395C56.6175 29.4418 55.791 29.7304 55.1212 30.2593C54.4514 30.7881 53.9767 31.5269 53.7727 32.3582H50.6993C50.4558 32.3582 50.2223 32.4554 50.0501 32.6285C49.878 32.8015 49.7812 33.0363 49.7812 33.281C49.7812 33.5258 49.878 33.7605 50.0501 33.9336C50.2223 34.1067 50.4558 34.2039 50.6993 34.2039H53.7736C53.9461 34.903 54.3107 35.5392 54.8258 36.0399C55.3409 36.5406 55.9857 36.8856 56.6866 37.0354C57.3874 37.1853 58.1161 37.134 58.7893 36.8873C59.4625 36.6407 60.0531 36.2087 60.4937 35.6406C60.9343 35.0726 61.2071 34.3915 61.2809 33.675C61.3547 32.9586 61.2266 32.2357 60.9112 31.589C60.5957 30.9422 60.1057 30.3977 59.4971 30.0176C58.8884 29.6375 58.1857 29.4372 57.4692 29.4395ZM57.4692 35.2737C56.9465 35.2684 56.447 35.0559 56.0793 34.6825C55.7115 34.3091 55.5053 33.8049 55.5053 33.2794C55.5053 32.754 55.7116 32.2498 56.0793 31.8764C56.4471 31.5029 56.9466 31.2905 57.4692 31.2852C57.9919 31.2905 58.4914 31.503 58.8591 31.8764C59.2269 32.2498 59.4331 32.754 59.4331 33.2795C59.4331 33.8049 59.2268 34.3091 58.8591 34.6825C58.4913 35.056 57.9919 35.2684 57.4692 35.2737Z" fill="#686868"/>
<path d="M46.2138 23.0401C46.3357 23.0402 46.4564 23.0178 46.5689 22.9742C46.6815 22.9306 46.7836 22.8666 46.8695 22.786L49.0623 20.7334C49.8657 21.1866 50.8193 21.3499 51.743 21.1925C52.6667 21.0352 53.4967 20.5681 54.0765 19.8793C54.6562 19.1905 54.9457 18.3277 54.8901 17.4536C54.8346 16.5795 54.438 15.7545 53.7752 15.1343C53.1123 14.5142 52.2289 14.1416 51.2918 14.0871C50.3546 14.0325 49.4284 14.2996 48.6879 14.838C47.9475 15.3764 47.4439 16.1489 47.2721 17.0098C47.1004 17.8707 47.2725 18.7604 47.7558 19.5111L45.5581 21.5681C45.432 21.69 45.3469 21.8435 45.3131 22.0099C45.2794 22.1763 45.2985 22.3483 45.3682 22.5047C45.4378 22.6611 45.555 22.7951 45.7052 22.8902C45.8555 22.9853 46.0322 23.0374 46.2138 23.0401ZM49.6324 16.3494C50.0094 16.0081 50.5152 15.8188 51.0407 15.8224C51.5661 15.826 52.0689 16.0223 52.4404 16.3688C52.8119 16.7154 53.0223 17.1843 53.0261 17.6743C53.0299 18.1643 52.8268 18.636 52.4607 18.9875C52.0837 19.3288 51.5779 19.5181 51.0524 19.5144C50.527 19.5108 50.0242 19.3145 49.6527 18.968C49.2812 18.6215 49.0708 18.1526 49.067 17.6626C49.0632 17.1726 49.2663 16.7009 49.6324 16.3494Z" fill="#686868"/>
</svg>
