<svg width="65" height="64" viewBox="0 0 65 64" fill="none" xmlns="http://www.w3.org/2000/svg">
<path d="M28.6995 14.9886C29.5379 14.1566 30.3571 13.3438 31.1763 12.5246C31.4963 12.2046 31.8291 11.8974 32.1363 11.5582C32.3027 11.3726 32.4179 11.3534 32.6291 11.507C33.6531 12.2558 34.6963 12.9854 35.7267 13.7342C35.8995 13.8622 36.0275 13.8622 36.2195 13.7726C36.5715 13.5998 36.9363 13.4398 37.3139 13.3246C37.5443 13.2542 37.6019 13.1262 37.6339 12.9214C37.8387 11.6158 38.0563 10.3166 38.2675 9.01744L38.2931 8.91504H43.4771C43.5923 9.56784 43.7075 10.2206 43.8227 10.867C43.9443 11.571 44.0723 12.2686 44.1811 12.9726C44.2131 13.1774 44.3155 13.2798 44.5075 13.3438C44.8851 13.4782 45.2627 13.6382 45.6275 13.8046C45.7939 13.8814 45.9155 13.8814 46.0691 13.7662C47.1123 13.0046 48.1619 12.2558 49.2115 11.507C49.2883 11.4494 49.3715 11.4046 49.4291 11.3662C50.6579 12.595 51.8675 13.811 53.0963 15.0398C52.6163 15.7246 52.1171 16.435 51.6243 17.1454C51.3171 17.5806 51.0227 18.0158 50.7027 18.4446C50.5939 18.5918 50.6003 18.707 50.6771 18.8606C50.8499 19.2382 51.0163 19.6158 51.1507 20.0062C51.2211 20.2046 51.3235 20.2686 51.5155 20.3006C52.8467 20.5118 54.1779 20.7294 55.5091 20.947L55.6051 20.979V26.1502C55.0867 26.2462 54.5619 26.3358 54.0371 26.4318C53.1923 26.5854 52.3539 26.739 51.5091 26.8734C51.3235 26.9054 51.2339 26.9694 51.1699 27.155C51.0291 27.5518 50.8627 27.9422 50.6835 28.3262C50.6131 28.4798 50.6259 28.5822 50.7219 28.7102C51.4899 29.7598 52.2451 30.8158 53.0067 31.8782C53.0643 31.955 53.1155 32.0382 53.2051 32.1726C52.8467 32.5118 52.4883 32.8446 52.1427 33.1838C51.3299 33.9902 50.5107 34.7966 49.7107 35.6158C49.5635 35.763 49.4739 35.7694 49.3011 35.6478C48.2323 34.8862 47.1571 34.1438 46.0883 33.3886C45.9411 33.2862 45.8387 33.2798 45.6723 33.3566C45.2819 33.5422 44.8787 33.7022 44.4755 33.8558C44.3219 33.9134 44.2515 33.9774 44.2195 34.1502C44.0019 35.4238 43.7715 36.691 43.5475 37.9582C43.5283 38.0606 43.5027 38.163 43.4835 38.2782H38.2995C38.1779 37.5486 38.0563 36.819 37.9347 36.0894C37.8259 35.4558 37.7171 34.8158 37.6211 34.1822C37.5955 34.0158 37.5251 33.9198 37.3523 33.8622C36.9427 33.715 36.5459 33.5486 36.1555 33.363C35.9891 33.2862 35.8803 33.3118 35.7395 33.4078C34.6643 34.1694 33.5763 34.9246 32.4947 35.6798L32.3667 35.7566C31.1443 34.5406 29.9347 33.331 28.6995 32.1022C28.7315 32.051 28.7699 31.9806 28.8211 31.9102C29.5699 30.8606 30.3187 29.8046 31.0739 28.7614C31.1827 28.6078 31.1955 28.4926 31.1123 28.3198C30.9267 27.9294 30.7667 27.5262 30.6131 27.123C30.5555 26.9694 30.4851 26.8926 30.3187 26.867C29.0451 26.6494 27.7779 26.4126 26.5107 26.2014C26.2739 26.163 26.1971 26.0798 26.2035 25.8366C26.2163 24.3134 26.2099 22.7902 26.2035 21.267C26.2035 21.0494 26.2355 20.947 26.4851 20.9086C27.7395 20.7166 28.9939 20.4926 30.2483 20.2942C30.4659 20.2622 30.5811 20.1726 30.6515 19.9614C30.7795 19.5902 30.9267 19.219 31.1059 18.867C31.2147 18.6558 31.1827 18.5086 31.0547 18.323C30.3251 17.3054 29.6147 16.275 28.8915 15.251C28.8339 15.1742 28.7891 15.091 28.7123 14.9758M31.4515 15.2702C32.1427 16.2622 32.8275 17.2478 33.5251 18.2334C33.6083 18.355 33.6531 18.4446 33.5571 18.5918C32.8851 19.603 32.4307 20.7102 32.1619 21.9006C32.1427 21.9966 32.0083 22.1182 31.9059 22.1438C31.5411 22.227 31.1699 22.2718 30.7987 22.3358C29.9731 22.4702 29.1539 22.611 28.3219 22.7518V24.3902C28.3795 24.403 28.4243 24.4158 28.4755 24.4222C29.6019 24.627 30.7283 24.8318 31.8547 25.0238C32.0659 25.0558 32.1491 25.1518 32.1875 25.3374C32.4243 26.4894 32.8723 27.5582 33.5251 28.5374C33.6403 28.7038 33.6083 28.819 33.4995 28.9662C32.9491 29.7214 32.4051 30.483 31.8611 31.2446C31.7075 31.4622 31.5539 31.6798 31.3875 31.9166C31.7203 32.243 32.0467 32.5502 32.3475 32.8702C32.4947 33.0238 32.5907 33.043 32.7763 32.915C33.6915 32.2558 34.6195 31.6222 35.5411 30.9694C35.6755 30.8734 35.7779 30.8478 35.9251 30.9502C36.9235 31.6094 38.0115 32.0574 39.1827 32.3006C39.3619 32.339 39.4387 32.4222 39.4643 32.6014C39.5347 33.107 39.6243 33.6062 39.7075 34.1118C39.8227 34.803 39.9379 35.4942 40.0595 36.2046C40.5331 36.2046 40.9875 36.1918 41.4355 36.2046C41.6467 36.211 41.7107 36.1342 41.7427 35.9358C41.9283 34.8222 42.1395 33.7214 42.3251 32.6078C42.3571 32.3966 42.4531 32.3198 42.6387 32.275C43.7587 32.0318 44.8083 31.603 45.7619 30.9694C45.9603 30.835 46.0947 30.8414 46.2931 30.9822C47.2019 31.635 48.1171 32.2686 49.0323 32.9086C49.1283 32.979 49.2179 33.0878 49.3523 32.947C49.6979 32.6014 50.0563 32.2622 50.4083 31.9166C50.3315 31.8014 50.2739 31.7246 50.2163 31.6478C49.5699 30.7518 48.9235 29.843 48.2707 28.9534C48.1427 28.7806 48.1363 28.6526 48.2515 28.4734C48.8467 27.5454 49.3075 26.547 49.5187 25.459C49.5827 25.1198 49.7619 25.0238 50.0691 24.979C51.1443 24.8062 52.2131 24.6078 53.2819 24.4094C53.3651 24.3966 53.4931 24.307 53.4931 24.2494C53.5123 23.7502 53.4995 23.251 53.4995 22.7454C52.2707 22.5406 51.0739 22.3422 49.8771 22.1566C49.6787 22.1246 49.6083 22.0414 49.5635 21.8558C49.3139 20.7166 48.8851 19.6478 48.2387 18.675C48.1235 18.4958 48.1491 18.3742 48.2643 18.2142C48.9107 17.3054 49.5507 16.3902 50.1971 15.475C50.2483 15.3982 50.2995 15.3214 50.3187 15.2894C49.9219 14.8798 49.5443 14.5022 49.1603 14.1054C48.2067 14.7902 47.2339 15.4814 46.2739 16.1854C46.1011 16.3134 45.9795 16.3262 45.7939 16.2046C44.8467 15.5774 43.8099 15.1422 42.6963 14.9054C42.4275 14.8478 42.3315 14.7198 42.2867 14.451C42.1139 13.3502 41.9091 12.2494 41.7107 11.155C41.6979 11.091 41.6211 10.9822 41.5763 10.9822C41.0707 10.9694 40.5587 10.9758 40.0467 10.9758C39.8483 12.1854 39.6499 13.363 39.4643 14.5406C39.4323 14.7262 39.3811 14.8222 39.1763 14.867C38.0179 15.1102 36.9299 15.5454 35.9379 16.1982C35.7715 16.307 35.6563 16.2878 35.5027 16.179C35.0163 15.8142 34.5171 15.4686 34.0243 15.1166C33.5379 14.771 33.0579 14.4254 32.5907 14.0926C32.1939 14.4894 31.8163 14.8606 31.4259 15.2574" fill="#686868"/>
<path d="M26.1742 48.8132V55.0852H24.1134V50.9124C23.979 50.906 23.883 50.8996 23.7806 50.8996C22.7374 50.8996 21.7006 50.8996 20.6574 50.8996C17.9118 50.8996 15.4734 48.8132 15.0766 46.0932C14.7246 43.6868 14.411 41.2676 14.0846 38.8548C14.0462 38.5924 13.9694 38.4132 13.6942 38.2852C12.7726 37.85 11.8638 37.3828 10.9486 36.922C9.48299 36.1796 8.95819 34.458 9.77739 33.0372C11.1086 30.7332 12.4334 28.4292 13.7838 26.1444C14.0654 25.6644 14.059 25.1524 14.1294 24.6468C14.5454 21.8756 15.2174 19.194 16.5934 16.7236C18.6222 13.082 21.739 10.8356 25.7134 9.72837C26.4878 9.51077 27.2878 9.36358 28.0814 9.20998C28.7086 9.08838 29.2462 9.47237 29.3422 10.0676C29.4382 10.6564 29.0414 11.1812 28.4206 11.2836C26.475 11.5972 24.6062 12.1348 22.8974 13.1396C20.5102 14.5348 18.8718 16.57 17.7838 19.0788C16.9262 21.0436 16.4526 23.1108 16.1646 25.2292C16.1198 25.5812 16.0878 25.9396 16.0302 26.2916C16.011 26.4324 15.9598 26.5732 15.8894 26.6948C14.4878 29.1204 13.0798 31.546 11.6718 33.9652C11.3326 34.5476 11.4158 34.8164 12.011 35.1108C13.2334 35.7188 14.4558 36.3332 15.6846 36.9348C15.8894 37.0372 15.9726 37.1588 16.0046 37.3892C16.2798 39.45 16.5678 41.5108 16.8494 43.5716C16.9518 44.2948 17.035 45.0244 17.1502 45.7476C17.4254 47.514 18.955 48.794 20.7534 48.794C22.4686 48.794 24.1838 48.794 25.899 48.8004C25.9822 48.8004 26.0654 48.8132 26.1678 48.8196" fill="#424242"/>
<path d="M45.1326 55.0838H43.0078C43.0078 54.4438 43.0078 53.8294 43.0078 53.2151C43.0078 51.7303 43.027 50.2454 43.0142 48.767C42.9758 44.9591 44.1598 41.5415 46.3102 38.4311C46.643 37.9511 47.1358 37.7911 47.6158 37.9895C48.2558 38.2583 48.4542 38.9559 48.0766 39.5767C47.5838 40.4023 47.0526 41.2087 46.6238 42.0663C45.6126 44.1079 45.107 46.2711 45.1262 48.5559C45.139 50.3159 45.1262 52.0822 45.1262 53.8422V55.0774L45.1326 55.0838Z" fill="#424242"/>
<path d="M46.1664 23.6023C46.1472 26.4951 43.7536 28.8887 40.8864 28.8503C37.8016 28.8055 35.5936 26.2391 35.6576 23.4423C35.7216 20.6455 38.1152 18.3223 40.9952 18.3479C43.824 18.3671 46.1856 20.7735 46.1664 23.6087M40.8992 26.7383C42.6592 26.7447 44.0608 25.3559 44.0608 23.5895C44.0608 21.8423 42.6784 20.4535 40.9248 20.4407C39.1904 20.4279 37.7696 21.8231 37.7568 23.5639C37.744 25.3175 39.1392 26.7319 40.8992 26.7383Z" fill="#686868"/>
</svg>
