<svg width="65" height="64" viewBox="0 0 65 64" fill="none" xmlns="http://www.w3.org/2000/svg">
<path fill-rule="evenodd" clip-rule="evenodd" d="M15.3245 52.8165H10.7939C10.4508 52.8165 10.1719 52.5376 10.1719 52.1944V31.4502C10.1719 31.107 10.4508 30.8281 10.7939 30.8281C11.1371 30.8281 11.416 31.107 11.416 31.4502V51.5724H14.7025V39.3979C14.7025 39.0547 14.9813 38.7758 15.3245 38.7758C15.6677 38.7758 15.9466 39.0547 15.9466 39.3979V52.1944C15.9466 52.5376 15.6677 52.8165 15.3245 52.8165Z" fill="#424242"/>
<path fill-rule="evenodd" clip-rule="evenodd" d="M58.4109 52.8153H7.54392C7.20076 52.8153 6.92188 52.5375 6.92188 52.1943C6.92188 51.8501 7.20076 51.5723 7.54392 51.5723H58.4109C58.754 51.5723 59.0329 51.8501 59.0329 52.1943C59.0329 52.5375 58.754 52.8153 58.4109 52.8153Z" fill="#424242"/>
<path fill-rule="evenodd" clip-rule="evenodd" d="M56.6104 39.6153H26.1778C25.0456 39.6153 24.125 38.6947 24.125 37.5636V27.1402C24.125 26.797 24.4039 26.5181 24.747 26.5181C25.0902 26.5181 25.3691 26.797 25.3691 27.1402V37.5636C25.3691 38.0094 25.732 38.3723 26.1778 38.3723H56.6104C57.0562 38.3723 57.4191 38.0094 57.4191 37.5636V15.8438C57.4191 15.398 57.0573 15.0351 56.6104 15.0351H26.1778C25.732 15.0351 25.3691 15.398 25.3691 15.8438V23.2648C25.3691 23.608 25.0902 23.8869 24.747 23.8869C24.4039 23.8869 24.125 23.608 24.125 23.2648V15.8438C24.125 14.7116 25.0456 13.791 26.1778 13.791H56.6104C57.7425 13.791 58.6632 14.7116 58.6632 15.8438V37.5636C58.6632 38.6947 57.7425 39.6153 56.6104 39.6153Z" fill="#686868"/>
<path fill-rule="evenodd" clip-rule="evenodd" d="M58.0411 36.1562H24.747C24.4039 36.1562 24.125 35.8784 24.125 35.5342C24.125 35.191 24.4039 34.9121 24.747 34.9121H58.0411C58.3843 34.9121 58.6632 35.191 58.6632 35.5342C58.6632 35.8784 58.3843 36.1562 58.0411 36.1562Z" fill="#686868"/>
<path fill-rule="evenodd" clip-rule="evenodd" d="M44.8987 15.0344C44.5555 15.0344 44.2766 14.7555 44.2766 14.4124V12.1699H38.1816V14.4124C38.1816 14.7555 37.9027 15.0344 37.5595 15.0344C37.2153 15.0344 36.9375 14.7555 36.9375 14.4124V12.003C36.9375 11.4089 37.4206 10.9258 38.0147 10.9258H44.4436C45.0376 10.9258 45.5207 11.4089 45.5207 12.003V14.4124C45.5207 14.7566 45.2418 15.0344 44.8987 15.0344Z" fill="#686868"/>
<path fill-rule="evenodd" clip-rule="evenodd" d="M37.192 30.0049C37.0334 30.0049 36.8737 29.9437 36.7524 29.8224L34.0735 27.1434C33.8298 26.9008 33.8298 26.5069 34.0724 26.2643L36.7524 23.5843C36.995 23.3417 37.389 23.3417 37.6316 23.5843C37.8742 23.8279 37.8742 24.2219 37.6316 24.4645L35.3922 26.7039L37.6316 28.9432C37.8752 29.1858 37.8752 29.5798 37.6316 29.8224C37.5103 29.9437 37.3506 30.0049 37.192 30.0049Z" fill="#686868"/>
<path fill-rule="evenodd" clip-rule="evenodd" d="M45.5981 30.0046C45.4395 30.0046 45.2798 29.9434 45.1585 29.8221C44.9159 29.5795 44.9159 29.1856 45.1585 28.943L47.3979 26.7036L45.1585 24.4642C44.9159 24.2216 44.9159 23.8277 45.1585 23.5851C45.4011 23.3414 45.7951 23.3414 46.0377 23.5851L48.7166 26.264C48.9603 26.5066 48.9603 26.9006 48.7166 27.1432L46.0377 29.8221C45.9164 29.9434 45.7578 30.0046 45.5981 30.0046Z" fill="#686868"/>
<path fill-rule="evenodd" clip-rule="evenodd" d="M40.0134 32.4998C39.9605 32.4998 39.9066 32.4936 39.8517 32.478C39.5199 32.3899 39.3229 32.0488 39.4121 31.7171L42.1854 21.3672C42.2745 21.0365 42.6156 20.8385 42.9474 20.9276C43.2791 21.0168 43.4761 21.3579 43.387 21.6896L40.6137 32.0384C40.539 32.3163 40.2881 32.4998 40.0134 32.4998Z" fill="#686868"/>
<path fill-rule="evenodd" clip-rule="evenodd" d="M14.6954 21.8625C11.7449 21.8625 9.34375 19.4624 9.34375 16.5118C9.34375 13.5613 11.7449 11.1602 14.6954 11.1602C17.646 11.1602 20.0461 13.5613 20.0461 16.5118C20.0461 19.4624 17.645 21.8625 14.6954 21.8625ZM14.6954 12.4043C12.4301 12.4043 10.5878 14.2466 10.5878 16.5118C10.5878 18.7761 12.4301 20.6184 14.6954 20.6184C16.9597 20.6184 18.802 18.7761 18.802 16.5118C18.802 14.2466 16.9597 12.4043 14.6954 12.4043Z" fill="#424242"/>
<path fill-rule="evenodd" clip-rule="evenodd" d="M19.5382 52.7974C19.195 52.7974 18.9161 52.5185 18.9161 52.1753V27.14C18.9161 26.7968 19.195 26.5179 19.5382 26.5179C19.8813 26.5179 20.1602 26.7968 20.1602 27.14V52.1753C20.1602 52.5185 19.8813 52.7974 19.5382 52.7974ZM10.5361 41.2729H6.84217C6.35697 41.2729 5.96094 40.8873 5.96094 40.4124V29.7422C5.96094 25.8275 9.14582 22.6426 13.0606 22.6426H19.5382C19.8813 22.6426 20.1602 22.9215 20.1602 23.2646C20.1602 23.6078 19.8813 23.8867 19.5382 23.8867H13.0606C9.83215 23.8867 7.20503 26.5138 7.20503 29.7422V40.0288H10.3059C10.42 39.8837 10.5962 39.7904 10.7953 39.7904C11.1395 39.7904 11.4173 40.0693 11.4173 40.4124C11.4173 40.8873 11.0223 41.2729 10.5361 41.2729Z" fill="#424242"/>
<path fill-rule="evenodd" clip-rule="evenodd" d="M28.9223 27.762H19.5439C19.2008 27.762 18.9219 27.4832 18.9219 27.14C18.9219 26.7968 19.2008 26.5179 19.5439 26.5179H28.5387V23.8867H19.5439C19.2008 23.8867 18.9219 23.6078 18.9219 23.2646C18.9219 22.9215 19.2008 22.6426 19.5439 22.6426H28.9223C29.3972 22.6426 29.7828 23.0282 29.7828 23.5031V26.9015C29.7828 27.3753 29.3972 27.762 28.9223 27.762Z" fill="#424242"/>
</svg>
