<svg width="65" height="64" viewBox="0 0 65 64" fill="none" xmlns="http://www.w3.org/2000/svg">
<path d="M50.0577 20.2922C50.0577 28.0511 43.7679 34.3409 36.009 34.3409C28.25 34.3409 21.9602 28.0511 21.9602 20.2922C21.9602 12.5332 28.25 6.24338 36.009 6.24338C43.7679 6.24338 50.0577 12.5332 50.0577 20.2922Z" stroke="#686868" stroke-width="1.56098"/>
<path d="M21.0265 57.8992C21.3495 58.2247 21.8752 58.2283 22.2024 57.906L26.2418 53.9265C26.9281 53.2402 27.1368 52.2242 26.835 51.3409L27.7039 50.503C28.1717 50.0511 28.7876 49.8021 29.4387 49.8021H40.5149C42.48 49.8021 44.3372 49.0474 45.7452 47.6772C45.8032 47.6209 45.3054 48.2072 53.3016 38.6503C54.4876 37.2472 54.3102 35.1402 52.9057 33.953C51.5101 32.7767 49.4194 32.9457 48.2302 34.3247L43.3137 39.3779C42.6929 38.6139 41.7462 38.1376 40.7233 38.1376H31.4324C30.1103 37.5845 28.7076 37.3045 27.2602 37.3045C23.2481 37.3045 19.7448 39.1575 17.8648 42.6318C17.0727 42.4817 16.2373 42.7213 15.6364 43.3223L11.6728 47.2976C11.3492 47.6222 11.3485 48.1473 11.6715 48.4728L21.0265 57.8992ZM27.2598 38.9707C28.536 38.9707 29.7698 39.2275 30.9278 39.7341C31.0333 39.7803 31.1469 39.8041 31.2618 39.8041H40.7233C41.6267 39.8041 42.3898 40.5408 42.3898 41.4702C42.3898 42.3893 41.6423 43.1367 40.7233 43.1367H33.9255C33.4655 43.1367 33.0924 43.5098 33.0924 43.9698C33.0924 44.4302 33.4655 44.8029 33.9255 44.8029H40.7233C42.561 44.8029 44.056 43.308 44.056 41.4702C44.056 41.3237 44.0455 41.1786 44.0267 41.0347C48.7826 36.1459 49.4533 35.459 49.4819 35.4248C50.0757 34.7239 51.1298 34.635 51.8311 35.2262C52.533 35.8197 52.6218 36.8731 52.0264 37.578L44.5534 46.5117C43.4622 47.5593 42.0294 48.1359 40.5149 48.1359H29.4387C28.3534 48.1359 27.3259 48.551 26.5465 49.304L25.8385 49.9873L19.3112 43.4603C20.8367 40.5984 23.6993 38.9707 27.2598 38.9707ZM16.8155 44.4998C17.0903 44.2251 17.5122 44.1756 17.8472 44.3826C17.9914 44.4705 17.5773 44.0935 25.0637 51.5695C25.3967 51.9025 25.3788 52.4332 25.0682 52.7437L21.6245 56.1363L13.4379 47.8872L16.8155 44.4998Z" fill="#424242"/>
<path d="M30.1618 25.7949C31.3689 25.7949 32.217 24.8766 32.704 23.9431C33.2163 22.9612 33.5032 21.6741 33.5032 20.3071C33.5032 18.9402 33.2163 17.6531 32.704 16.6712C32.217 15.7377 31.3689 14.8193 30.1618 14.8193C28.9547 14.8193 28.1066 15.7377 27.6195 16.6712C27.1072 17.6531 26.8203 18.9402 26.8203 20.3071C26.8203 21.6741 27.1072 22.9612 27.6195 23.9431C28.1066 24.8766 28.9547 25.7949 30.1618 25.7949Z" stroke="#686868" stroke-width="2"/>
<g clip-path="url(#clip0_3712_38862)">
<path d="M43.9989 17.0892V17.996C43.9989 18.079 43.9723 18.1472 43.9189 18.2005C43.8656 18.2538 43.7974 18.2805 43.7144 18.2805H42.2209C42.0846 19.134 41.7023 19.8274 41.0741 20.3608C40.4459 20.8942 39.628 21.2202 38.6204 21.3387C39.6102 22.3937 40.9704 23.982 42.701 26.1038C42.7839 26.1986 42.7958 26.2994 42.7365 26.4061C42.6891 26.5127 42.6032 26.5661 42.4787 26.5661H40.7452C40.6503 26.5661 40.5762 26.5305 40.5229 26.4594C38.7093 24.2843 37.2336 22.5922 36.0956 21.3832C36.0423 21.3298 36.0156 21.2646 36.0156 21.1876V20.0585C36.0156 19.9815 36.0438 19.9148 36.1001 19.8585C36.1564 19.8022 36.2231 19.774 36.3001 19.774H37.2958C38.0781 19.774 38.7078 19.6466 39.1849 19.3918C39.662 19.1369 39.9658 18.7665 40.0962 18.2805H36.3001C36.2171 18.2805 36.149 18.2538 36.0956 18.2005C36.0423 18.1472 36.0156 18.079 36.0156 17.996V17.0892C36.0156 17.0063 36.0423 16.9381 36.0956 16.8848C36.149 16.8314 36.2171 16.8048 36.3001 16.8048H39.9717C39.6339 16.135 38.8397 15.8002 37.5892 15.8002H36.3001C36.2231 15.8002 36.1564 15.772 36.1001 15.7157C36.0438 15.6594 36.0156 15.5927 36.0156 15.5157V14.3333C36.0156 14.2503 36.0423 14.1822 36.0956 14.1288C36.149 14.0755 36.2171 14.0488 36.3001 14.0488H43.6967C43.7796 14.0488 43.8478 14.0755 43.9011 14.1288C43.9545 14.1822 43.9811 14.2503 43.9811 14.3333V15.2401C43.9811 15.3231 43.9545 15.3912 43.9011 15.4446C43.8478 15.4979 43.7796 15.5246 43.6967 15.5246H41.6253C41.9038 15.8861 42.0935 16.3128 42.1942 16.8048H43.7144C43.7974 16.8048 43.8656 16.8314 43.9189 16.8848C43.9723 16.9381 43.9989 17.0063 43.9989 17.0892Z" fill="#686868"/>
</g>
<defs>
<clipPath id="clip0_3712_38862">
<rect width="8.25" height="12.5172" fill="white" transform="translate(36.0156 14.0488)"/>
</clipPath>
</defs>
</svg>
